<?xml version="1.0" standalone="no"?>
<!DOCTYPE svg PUBLIC "-//W3C//DTD SVG 20010904//EN"
 "http://www.w3.org/TR/2001/REC-SVG-20010904/DTD/svg10.dtd">
<svg version="1.0" xmlns="http://www.w3.org/2000/svg"
 width="512.000000pt" height="512.000000pt" viewBox="0 0 512.000000 512.000000"
 preserveAspectRatio="xMidYMid meet">

<g transform="translate(0.000000,512.000000) scale(0.100000,-0.100000)"
fill="#d4d4d4" stroke="none">
<path d="M1458 5105 c-96 -24 -177 -71 -254 -149 -118 -120 -154 -217 -154
-418 l0 -128 -28 0 c-43 0 -141 -28 -202 -58 -70 -35 -177 -142 -212 -212 -62
-125 -58 -7 -58 -1935 0 -1527 2 -1768 15 -1818 48 -185 187 -324 372 -372 49
-13 230 -15 1287 -15 1355 0 1295 -3 1417 62 121 63 225 206 250 343 7 33 13
66 15 73 2 8 33 12 107 12 66 0 123 6 158 16 179 53 322 193 376 369 17 57 18
144 18 1930 0 1801 -1 1872 -19 1925 -60 176 -181 303 -346 362 l-65 23 -1310
2 c-1091 1 -1320 -1 -1367 -12z m2667 -309 c58 -27 107 -78 126 -133 12 -31
14 -353 14 -1868 0 -1777 -1 -1831 -19 -1868 -48 -96 -121 -136 -248 -137
l-87 0 -4 1602 c-3 1576 -3 1604 -23 1658 -67 183 -189 300 -360 344 -55 14
-187 16 -1119 16 l-1057 0 4 128 c3 117 6 130 29 167 34 52 54 69 109 94 44
20 60 21 1315 21 l1270 0 50 -24z m-635 -708 c24 -13 58 -40 74 -61 l31 -39 0
-1783 0 -1783 -31 -39 c-16 -21 -50 -48 -75 -61 l-44 -22 -1230 2 -1230 3 -38
27 c-22 14 -51 43 -65 65 l-27 38 0 1772 0 1771 30 43 c17 23 50 53 74 66 l44
23 1221 0 1222 0 44 -22z"/>
<path d="M1205 3876 c-63 -27 -107 -110 -90 -168 14 -45 46 -86 79 -102 30
-14 124 -16 888 -16 792 0 855 1 888 18 107 53 107 205 0 260 l-44 22 -846 0
c-680 -1 -851 -3 -875 -14z"/>
<path d="M1205 3406 c-42 -18 -83 -69 -91 -112 -9 -48 19 -118 59 -146 l32
-23 1015 -3 c999 -2 1016 -2 1048 18 100 61 95 204 -8 258 l-44 22 -991 0
c-800 -1 -996 -3 -1020 -14z"/>
<path d="M1235 2902 c-51 -24 -101 -80 -114 -129 -15 -53 -15 -1034 0 -1088
16 -59 84 -120 149 -134 68 -15 642 -15 711 0 34 7 64 23 90 46 71 64 70 53
67 653 -3 535 -3 535 -25 571 -13 20 -42 49 -65 65 l-43 29 -365 3 c-337 2
-368 1 -405 -16z m605 -672 l0 -390 -215 0 -215 0 0 390 0 390 215 0 215 0 0
-390z"/>
<path d="M2498 2899 c-43 -22 -78 -81 -78 -130 0 -49 38 -106 85 -129 39 -19
62 -20 381 -20 303 0 343 2 374 18 107 53 107 211 0 264 -31 16 -71 18 -380
18 -324 -1 -347 -2 -382 -21z"/>
<path d="M2504 2456 c-49 -22 -79 -72 -79 -133 0 -56 18 -90 69 -127 26 -20
42 -21 369 -24 297 -2 348 -1 385 14 113 43 125 200 20 264 -31 19 -51 20
-383 20 -271 -1 -357 -4 -381 -14z"/>
<path d="M1205 1326 c-63 -27 -107 -110 -90 -168 14 -45 46 -86 79 -102 30
-14 124 -16 888 -16 792 0 855 1 888 18 107 53 107 205 0 260 l-44 22 -846 0
c-680 -1 -851 -3 -875 -14z"/>
<path d="M1205 856 c-42 -18 -83 -69 -91 -112 -9 -48 19 -118 59 -146 l32 -23
1015 -3 c999 -2 1016 -2 1048 18 101 62 95 212 -11 260 -41 19 -77 20 -1032
19 -801 0 -996 -2 -1020 -13z"/>
</g>
</svg>
